<svg width="40" height="41" viewBox="0 0 40 41" fill="none" xmlns="http://www.w3.org/2000/svg">
<mask id="mask0_1342_6649" style="mask-type:alpha" maskUnits="userSpaceOnUse" x="0" y="0" width="40" height="41">
<rect y="0.5" width="40" height="40" fill="#D9D9D9"/>
</mask>
<g mask="url(#mask0_1342_6649)">
<path d="M13.9987 28.833L19.9987 22.833L25.9987 28.833L28.332 26.4997L22.332 20.4997L28.332 14.4997L25.9987 12.1663L19.9987 18.1663L13.9987 12.1663L11.6654 14.4997L17.6654 20.4997L11.6654 26.4997L13.9987 28.833ZM19.9987 37.1663C17.6931 37.1663 15.5265 36.7288 13.4987 35.8538C11.4709 34.9788 9.70703 33.7913 8.20703 32.2913C6.70703 30.7913 5.51953 29.0275 4.64453 26.9997C3.76953 24.9719 3.33203 22.8052 3.33203 20.4997C3.33203 18.1941 3.76953 16.0275 4.64453 13.9997C5.51953 11.9719 6.70703 10.208 8.20703 8.70801C9.70703 7.20801 11.4709 6.02051 13.4987 5.14551C15.5265 4.27051 17.6931 3.83301 19.9987 3.83301C22.3043 3.83301 24.4709 4.27051 26.4987 5.14551C28.5265 6.02051 30.2904 7.20801 31.7904 8.70801C33.2904 10.208 34.4779 11.9719 35.3529 13.9997C36.2279 16.0275 36.6654 18.1941 36.6654 20.4997C36.6654 22.8052 36.2279 24.9719 35.3529 26.9997C34.4779 29.0275 33.2904 30.7913 31.7904 32.2913C30.2904 33.7913 28.5265 34.9788 26.4987 35.8538C24.4709 36.7288 22.3043 37.1663 19.9987 37.1663ZM19.9987 33.833C23.7209 33.833 26.8737 32.5413 29.457 29.958C32.0404 27.3747 33.332 24.2219 33.332 20.4997C33.332 16.7775 32.0404 13.6247 29.457 11.0413C26.8737 8.45801 23.7209 7.16634 19.9987 7.16634C16.2765 7.16634 13.1237 8.45801 10.5404 11.0413C7.95703 13.6247 6.66536 16.7775 6.66536 20.4997C6.66536 24.2219 7.95703 27.3747 10.5404 29.958C13.1237 32.5413 16.2765 33.833 19.9987 33.833Z" fill="#B6B6B6"/>
</g>
</svg>
