<svg width="14" height="55" viewBox="0 0 14 55" fill="none" xmlns="http://www.w3.org/2000/svg">
<path fill-rule="evenodd" clip-rule="evenodd" d="M7.07121 40.7168C10.7531 40.7168 13.7379 43.7015 13.7379 47.3834C13.7379 51.0653 10.7531 54.0501 7.07121 54.0501C3.38931 54.0501 0.404541 51.0653 0.404541 47.3834C0.404541 43.7015 3.38931 40.7168 7.07121 40.7168ZM7.07121 20.7168C10.7531 20.7168 13.7379 23.7015 13.7379 27.3834C13.7379 31.0653 10.7531 34.0501 7.07121 34.0501C3.38931 34.0501 0.404541 31.0653 0.404541 27.3834C0.404541 23.7015 3.38931 20.7168 7.07121 20.7168ZM7.07121 0.716756C10.7531 0.716756 13.7379 3.70152 13.7379 7.38342C13.7379 11.0653 10.7531 14.0501 7.07121 14.0501C3.38931 14.0501 0.404541 11.0653 0.404541 7.38342C0.404541 3.70152 3.38931 0.716756 7.07121 0.716756Z" fill="#ABABAB"/>
</svg>
