<svg width="45" height="20" viewBox="0 0 45 20" fill="none" xmlns="http://www.w3.org/2000/svg">
<rect width="45" height="20" rx="5" fill="#44A1F8"/>
<path d="M16.7994 8.09375C16.7397 7.88636 16.6559 7.70312 16.5479 7.54403C16.44 7.3821 16.3079 7.24574 16.1516 7.13494C15.9982 7.02131 15.8221 6.93466 15.6232 6.875C15.4272 6.81534 15.2099 6.78551 14.9712 6.78551C14.5252 6.78551 14.1332 6.89631 13.7951 7.1179C13.4599 7.33949 13.1985 7.66193 13.011 8.08523C12.8235 8.50568 12.7298 9.01989 12.7298 9.62784C12.7298 10.2358 12.8221 10.7528 13.0067 11.179C13.1914 11.6051 13.4528 11.9304 13.7908 12.1548C14.1289 12.3764 14.5281 12.4872 14.9883 12.4872C15.4059 12.4872 15.7624 12.4134 16.0579 12.2656C16.3562 12.1151 16.5835 11.9034 16.7397 11.6307C16.8988 11.358 16.9783 11.0355 16.9783 10.6634L17.3533 10.7188H15.1033V9.32955H18.7553V10.429C18.7553 11.196 18.5934 11.8551 18.2695 12.4062C17.9457 12.9545 17.4996 13.3778 16.9315 13.6761C16.3633 13.9716 15.7127 14.1193 14.9798 14.1193C14.1616 14.1193 13.4428 13.9389 12.8235 13.5781C12.2042 13.2145 11.7212 12.6989 11.3746 12.0312C11.0309 11.3608 10.859 10.5653 10.859 9.64489C10.859 8.9375 10.9613 8.30682 11.1658 7.75284C11.3732 7.19602 11.663 6.72443 12.0352 6.33807C12.4073 5.9517 12.8406 5.65767 13.3349 5.45597C13.8292 5.25426 14.3647 5.15341 14.9414 5.15341C15.4357 5.15341 15.896 5.22585 16.3221 5.37074C16.7482 5.51278 17.1261 5.71449 17.4556 5.97585C17.788 6.23722 18.0593 6.5483 18.2695 6.90909C18.4798 7.26705 18.6147 7.66193 18.6744 8.09375H16.7994ZM20.1413 14V5.27273H26.022V6.79403H21.9865V8.87358H25.7195V10.3949H21.9865V12.4787H26.0391V14H20.1413ZM27.1566 6.79403V5.27273H34.3242V6.79403H31.6523V14H29.8285V6.79403H27.1566Z" fill="white"/>
</svg>
