<svg width="30" height="30" viewBox="0 0 30 30" fill="none" xmlns="http://www.w3.org/2000/svg">
<g id="group">
<mask id="mask0_1255_1768" style="mask-type:alpha" maskUnits="userSpaceOnUse" x="0" y="0" width="30" height="30">
<rect id="Bounding box" width="30" height="30" fill="#D9D9D9"/>
</mask>
<g mask="url(#mask0_1255_1768)">
<path id="group_2" d="M1.25 24.9995V21.4995C1.25 20.7912 1.43229 20.1401 1.79688 19.5464C2.16146 18.9526 2.64583 18.4995 3.25 18.187C4.54167 17.5412 5.85417 17.0568 7.1875 16.7339C8.52083 16.411 9.875 16.2495 11.25 16.2495C12.625 16.2495 13.9792 16.411 15.3125 16.7339C16.6458 17.0568 17.9583 17.5412 19.25 18.187C19.8542 18.4995 20.3385 18.9526 20.7031 19.5464C21.0677 20.1401 21.25 20.7912 21.25 21.4995V24.9995H1.25ZM23.75 24.9995V21.2495C23.75 20.3328 23.4948 19.4526 22.9844 18.6089C22.474 17.7651 21.75 17.0412 20.8125 16.437C21.875 16.562 22.875 16.7756 23.8125 17.0776C24.75 17.3797 25.625 17.7495 26.4375 18.187C27.1875 18.6037 27.7604 19.0672 28.1562 19.5776C28.5521 20.0881 28.75 20.6453 28.75 21.2495V24.9995H23.75ZM11.25 14.9995C9.875 14.9995 8.69792 14.5099 7.71875 13.5308C6.73958 12.5516 6.25 11.3745 6.25 9.99951C6.25 8.62451 6.73958 7.44743 7.71875 6.46826C8.69792 5.4891 9.875 4.99951 11.25 4.99951C12.625 4.99951 13.8021 5.4891 14.7812 6.46826C15.7604 7.44743 16.25 8.62451 16.25 9.99951C16.25 11.3745 15.7604 12.5516 14.7812 13.5308C13.8021 14.5099 12.625 14.9995 11.25 14.9995ZM23.75 9.99951C23.75 11.3745 23.2604 12.5516 22.2812 13.5308C21.3021 14.5099 20.125 14.9995 18.75 14.9995C18.5208 14.9995 18.2292 14.9735 17.875 14.9214C17.5208 14.8693 17.2292 14.812 17 14.7495C17.5625 14.0828 17.9948 13.3433 18.2969 12.5308C18.599 11.7183 18.75 10.8745 18.75 9.99951C18.75 9.12451 18.599 8.28076 18.2969 7.46826C17.9948 6.65576 17.5625 5.91618 17 5.24951C17.2917 5.14535 17.5833 5.07764 17.875 5.04639C18.1667 5.01514 18.4583 4.99951 18.75 4.99951C20.125 4.99951 21.3021 5.4891 22.2812 6.46826C23.2604 7.44743 23.75 8.62451 23.75 9.99951ZM3.75 22.4995H18.75V21.4995C18.75 21.2703 18.6927 21.062 18.5781 20.8745C18.4635 20.687 18.3125 20.5412 18.125 20.437C17 19.8745 15.8646 19.4526 14.7188 19.1714C13.5729 18.8901 12.4167 18.7495 11.25 18.7495C10.0833 18.7495 8.92708 18.8901 7.78125 19.1714C6.63542 19.4526 5.5 19.8745 4.375 20.437C4.1875 20.5412 4.03646 20.687 3.92188 20.8745C3.80729 21.062 3.75 21.2703 3.75 21.4995V22.4995ZM11.25 12.4995C11.9375 12.4995 12.526 12.2547 13.0156 11.7651C13.5052 11.2756 13.75 10.687 13.75 9.99951C13.75 9.31201 13.5052 8.72347 13.0156 8.23389C12.526 7.7443 11.9375 7.49951 11.25 7.49951C10.5625 7.49951 9.97396 7.7443 9.48438 8.23389C8.99479 8.72347 8.75 9.31201 8.75 9.99951C8.75 10.687 8.99479 11.2756 9.48438 11.7651C9.97396 12.2547 10.5625 12.4995 11.25 12.4995Z" fill="#1C1B1F"/>
</g>
</g>
</svg>
