<svg width="45" height="20" viewBox="0 0 45 20" fill="none" xmlns="http://www.w3.org/2000/svg">
<rect width="45" height="20" rx="5" fill="#FFA6DE"/>
<path d="M6.25462 14V5.27273H8.09979V8.87358H11.8455V5.27273H13.6864V14H11.8455V10.3949H8.09979V14H6.25462ZM15.2077 14V5.27273H21.0884V6.79403H17.0529V8.87358H20.7859V10.3949H17.0529V12.4787H21.1055V14H15.2077ZM24.0597 14H22.0824L25.0952 5.27273H27.473L30.4815 14H28.5043L26.3182 7.26705H26.25L24.0597 14ZM23.9361 10.5696H28.6065V12.0099H23.9361V10.5696ZM34.6257 14H31.532V5.27273H34.6513C35.5291 5.27273 36.2848 5.44744 36.9183 5.79688C37.5518 6.14347 38.0391 6.64205 38.38 7.29261C38.7237 7.94318 38.8956 8.72159 38.8956 9.62784C38.8956 10.5369 38.7237 11.3182 38.38 11.9716C38.0391 12.625 37.549 13.1264 36.9098 13.4759C36.2734 13.8253 35.5121 14 34.6257 14ZM33.3771 12.419H34.549C35.0945 12.419 35.5533 12.3224 35.9254 12.1293C36.3004 11.9332 36.5817 11.6307 36.7692 11.2216C36.9595 10.8097 37.0547 10.2784 37.0547 9.62784C37.0547 8.98295 36.9595 8.45597 36.7692 8.04688C36.5817 7.63778 36.3018 7.33665 35.9297 7.14347C35.5575 6.95028 35.0987 6.85369 34.5533 6.85369H33.3771V12.419Z" fill="white"/>
</svg>
