<svg width="45" height="20" viewBox="0 0 45 20" fill="none" xmlns="http://www.w3.org/2000/svg">
<rect width="45" height="20" rx="5" fill="#C98CFF"/>
<path d="M18.6925 9.63636C18.6925 10.5881 18.5121 11.3977 18.1513 12.0653C17.7933 12.733 17.3047 13.2429 16.6854 13.5952C16.0689 13.9446 15.3757 14.1193 14.6058 14.1193C13.8303 14.1193 13.1342 13.9432 12.5178 13.5909C11.9013 13.2386 11.4141 12.7287 11.0561 12.0611C10.6982 11.3935 10.5192 10.5852 10.5192 9.63636C10.5192 8.68466 10.6982 7.875 11.0561 7.20739C11.4141 6.53977 11.9013 6.03125 12.5178 5.68182C13.1342 5.32955 13.8303 5.15341 14.6058 5.15341C15.3757 5.15341 16.0689 5.32955 16.6854 5.68182C17.3047 6.03125 17.7933 6.53977 18.1513 7.20739C18.5121 7.875 18.6925 8.68466 18.6925 9.63636ZM16.8217 9.63636C16.8217 9.01989 16.7294 8.5 16.5447 8.0767C16.3629 7.65341 16.1058 7.33239 15.7734 7.11364C15.4411 6.89489 15.0518 6.78551 14.6058 6.78551C14.1598 6.78551 13.7706 6.89489 13.4382 7.11364C13.1058 7.33239 12.8473 7.65341 12.6626 8.0767C12.4808 8.5 12.3899 9.01989 12.3899 9.63636C12.3899 10.2528 12.4808 10.7727 12.6626 11.196C12.8473 11.6193 13.1058 11.9403 13.4382 12.1591C13.7706 12.3778 14.1598 12.4872 14.6058 12.4872C15.0518 12.4872 15.4411 12.3778 15.7734 12.1591C16.1058 11.9403 16.3629 11.6193 16.5447 11.196C16.7294 10.7727 16.8217 10.2528 16.8217 9.63636ZM20.0593 14V5.27273H23.5025C24.1644 5.27273 24.7283 5.39915 25.1942 5.65199C25.6602 5.90199 26.0153 6.25 26.2596 6.69602C26.5067 7.1392 26.6303 7.65057 26.6303 8.23011C26.6303 8.80966 26.5053 9.32102 26.2553 9.7642C26.0053 10.2074 25.6431 10.5526 25.1687 10.7997C24.6971 11.0469 24.1261 11.1705 23.4556 11.1705H21.261V9.69176H23.1573C23.5124 9.69176 23.805 9.63068 24.0352 9.50852C24.2681 9.38352 24.4414 9.21165 24.555 8.9929C24.6715 8.77131 24.7298 8.51705 24.7298 8.23011C24.7298 7.94034 24.6715 7.6875 24.555 7.47159C24.4414 7.25284 24.2681 7.08381 24.0352 6.96449C23.8022 6.84233 23.5067 6.78125 23.1488 6.78125H21.9045V14H20.0593ZM27.4964 6.79403V5.27273H34.6641V6.79403H31.9922V14H30.1683V6.79403H27.4964Z" fill="white"/>
</svg>
