<svg width="30" height="30" viewBox="0 0 30 30" fill="none" xmlns="http://www.w3.org/2000/svg">
<g id="person">
<mask id="mask0_1255_1026" style="mask-type:alpha" maskUnits="userSpaceOnUse" x="0" y="0" width="30" height="30">
<rect id="Bounding box" width="30" height="30" fill="#D9D9D9"/>
</mask>
<g mask="url(#mask0_1255_1026)">
<path id="person_2" d="M15 14.9995C13.625 14.9995 12.4479 14.5099 11.4688 13.5308C10.4896 12.5516 10 11.3745 10 9.99951C10 8.62451 10.4896 7.44743 11.4688 6.46826C12.4479 5.4891 13.625 4.99951 15 4.99951C16.375 4.99951 17.5521 5.4891 18.5312 6.46826C19.5104 7.44743 20 8.62451 20 9.99951C20 11.3745 19.5104 12.5516 18.5312 13.5308C17.5521 14.5099 16.375 14.9995 15 14.9995ZM5 24.9995V21.4995C5 20.7912 5.18229 20.1401 5.54688 19.5464C5.91146 18.9526 6.39583 18.4995 7 18.187C8.29167 17.5412 9.60417 17.0568 10.9375 16.7339C12.2708 16.411 13.625 16.2495 15 16.2495C16.375 16.2495 17.7292 16.411 19.0625 16.7339C20.3958 17.0568 21.7083 17.5412 23 18.187C23.6042 18.4995 24.0885 18.9526 24.4531 19.5464C24.8177 20.1401 25 20.7912 25 21.4995V24.9995H5ZM7.5 22.4995H22.5V21.4995C22.5 21.2703 22.4427 21.062 22.3281 20.8745C22.2135 20.687 22.0625 20.5412 21.875 20.437C20.75 19.8745 19.6146 19.4526 18.4688 19.1714C17.3229 18.8901 16.1667 18.7495 15 18.7495C13.8333 18.7495 12.6771 18.8901 11.5312 19.1714C10.3854 19.4526 9.25 19.8745 8.125 20.437C7.9375 20.5412 7.78646 20.687 7.67188 20.8745C7.55729 21.062 7.5 21.2703 7.5 21.4995V22.4995ZM15 12.4995C15.6875 12.4995 16.276 12.2547 16.7656 11.7651C17.2552 11.2756 17.5 10.687 17.5 9.99951C17.5 9.31201 17.2552 8.72347 16.7656 8.23389C16.276 7.7443 15.6875 7.49951 15 7.49951C14.3125 7.49951 13.724 7.7443 13.2344 8.23389C12.7448 8.72347 12.5 9.31201 12.5 9.99951C12.5 10.687 12.7448 11.2756 13.2344 11.7651C13.724 12.2547 14.3125 12.4995 15 12.4995Z" fill="#2E2E2E"/>
</g>
</g>
</svg>
