<svg width="45" height="20" viewBox="0 0 45 20" fill="none" xmlns="http://www.w3.org/2000/svg">
<rect width="45" height="20" rx="5" fill="#E64F47"/>
<path d="M14.9089 14H11.8152V5.27273H14.9345C15.8123 5.27273 16.568 5.44744 17.2015 5.79688C17.8351 6.14347 18.3223 6.64205 18.6632 7.29261C19.0069 7.94318 19.1788 8.72159 19.1788 9.62784C19.1788 10.5369 19.0069 11.3182 18.6632 11.9716C18.3223 12.625 17.8322 13.1264 17.193 13.4759C16.5566 13.8253 15.7953 14 14.9089 14ZM13.6603 12.419H14.8322C15.3777 12.419 15.8365 12.3224 16.2086 12.1293C16.5836 11.9332 16.8649 11.6307 17.0524 11.2216C17.2427 10.8097 17.3379 10.2784 17.3379 9.62784C17.3379 8.98295 17.2427 8.45597 17.0524 8.04688C16.8649 7.63778 16.585 7.33665 16.2129 7.14347C15.8407 6.95028 15.3819 6.85369 14.8365 6.85369H13.6603V12.419ZM20.5456 14V5.27273H26.4263V6.79403H22.3908V8.87358H26.1238V10.3949H22.3908V12.4787H26.4434V14H20.5456ZM27.8933 14V5.27273H29.7385V12.4787H33.4799V14H27.8933Z" fill="white"/>
</svg>
