<svg width="15" height="16" viewBox="0 0 15 16" fill="none" xmlns="http://www.w3.org/2000/svg">
<g id="folder">
<mask id="mask0_1255_1789" style="mask-type:alpha" maskUnits="userSpaceOnUse" x="0" y="0" width="15" height="16">
<rect id="Bounding box" y="0.5" width="15" height="15" fill="#D9D9D9"/>
</mask>
<g mask="url(#mask0_1255_1789)">
<path id="folder_2" d="M2.5 13.0005C2.15625 13.0005 1.86198 12.8781 1.61719 12.6333C1.3724 12.3885 1.25 12.0942 1.25 11.7505V4.25049C1.25 3.90674 1.3724 3.61247 1.61719 3.36768C1.86198 3.12288 2.15625 3.00049 2.5 3.00049H6.25L7.5 4.25049H12.5C12.8438 4.25049 13.138 4.37288 13.3828 4.61768C13.6276 4.86247 13.75 5.15674 13.75 5.50049V11.7505C13.75 12.0942 13.6276 12.3885 13.3828 12.6333C13.138 12.8781 12.8438 13.0005 12.5 13.0005H2.5ZM2.5 11.7505H12.5V5.50049H6.98438L5.73438 4.25049H2.5V11.7505Z" fill="#838383"/>
</g>
</g>
</svg>
