<svg width="45" height="19" viewBox="0 0 45 19" fill="none" xmlns="http://www.w3.org/2000/svg">
<rect width="45" height="19" rx="5" fill="#EFA44A"/>
<path d="M3.12571 14V5.27273H6.56889C7.23082 5.27273 7.79474 5.39915 8.26065 5.65199C8.72656 5.90199 9.08168 6.25 9.32599 6.69602C9.57315 7.1392 9.69673 7.65057 9.69673 8.23011C9.69673 8.80966 9.57173 9.32102 9.32173 9.7642C9.07173 10.2074 8.70952 10.5526 8.23509 10.7997C7.76349 11.0469 7.19247 11.1705 6.52202 11.1705H4.32741V9.69176H6.22372C6.57884 9.69176 6.87145 9.63068 7.10156 9.50852C7.33452 9.38352 7.50781 9.21165 7.62145 8.9929C7.73793 8.77131 7.79616 8.51705 7.79616 8.23011C7.79616 7.94034 7.73793 7.6875 7.62145 7.47159C7.50781 7.25284 7.33452 7.08381 7.10156 6.96449C6.86861 6.84233 6.57315 6.78125 6.2152 6.78125H4.97088V14H3.12571ZM11.3917 14H9.41442L12.4272 5.27273H14.805L17.8136 14H15.8363L13.6502 7.26705H13.582L11.3917 14ZM11.2681 10.5696H15.9386V12.0099H11.2681V10.5696ZM17.4652 6.79403V5.27273H24.6328V6.79403H21.9609V14H20.1371V6.79403H17.4652ZM33.1151 8.32812H31.2486C31.2145 8.08665 31.1449 7.87216 31.0398 7.68466C30.9347 7.49432 30.7997 7.33239 30.6349 7.19886C30.4702 7.06534 30.2798 6.96307 30.0639 6.89205C29.8509 6.82102 29.6193 6.78551 29.3693 6.78551C28.9176 6.78551 28.5241 6.89773 28.1889 7.12216C27.8537 7.34375 27.5938 7.66761 27.4091 8.09375C27.2244 8.51705 27.1321 9.03125 27.1321 9.63636C27.1321 10.2585 27.2244 10.7812 27.4091 11.2045C27.5966 11.6278 27.858 11.9474 28.1932 12.1634C28.5284 12.3793 28.9162 12.4872 29.3565 12.4872C29.6037 12.4872 29.8324 12.4545 30.0426 12.3892C30.2557 12.3239 30.4446 12.2287 30.6094 12.1037C30.7741 11.9759 30.9105 11.821 31.0185 11.6392C31.1293 11.4574 31.206 11.25 31.2486 11.017L33.1151 11.0256C33.0668 11.4261 32.946 11.8125 32.7528 12.1847C32.5625 12.554 32.3054 12.8849 31.9815 13.1776C31.6605 13.4673 31.277 13.6974 30.831 13.8679C30.3878 14.0355 29.8864 14.1193 29.3267 14.1193C28.5483 14.1193 27.8523 13.9432 27.2386 13.5909C26.6278 13.2386 26.1449 12.7287 25.7898 12.0611C25.4375 11.3935 25.2614 10.5852 25.2614 9.63636C25.2614 8.68466 25.4403 7.875 25.7983 7.20739C26.1563 6.53977 26.642 6.03125 27.2557 5.68182C27.8693 5.32955 28.5597 5.15341 29.3267 5.15341C29.8324 5.15341 30.3011 5.22443 30.733 5.36648C31.1676 5.50852 31.5526 5.71591 31.8878 5.98864C32.223 6.25852 32.4957 6.58949 32.706 6.98153C32.919 7.37358 33.0554 7.82244 33.1151 8.32812ZM34.4382 14V5.27273H36.2834V8.87358H40.0291V5.27273H41.87V14H40.0291V10.3949H36.2834V14H34.4382Z" fill="white"/>
</svg>
