<svg width="45" height="20" viewBox="0 0 45 20" fill="none" xmlns="http://www.w3.org/2000/svg">
<rect width="45" height="20" rx="5" fill="#6EC465"/>
<path d="M6.74094 14V5.27273H10.1841C10.8461 5.27273 11.41 5.39915 11.8759 5.65199C12.3418 5.90199 12.6969 6.25 12.9412 6.69602C13.1884 7.1392 13.312 7.65057 13.312 8.23011C13.312 8.80966 13.187 9.32102 12.937 9.7642C12.687 10.2074 12.3248 10.5526 11.8503 10.7997C11.3787 11.0469 10.8077 11.1705 10.1373 11.1705H7.94265V9.69176H9.83896C10.1941 9.69176 10.4867 9.63068 10.7168 9.50852C10.9498 9.38352 11.123 9.21165 11.2367 8.9929C11.3532 8.77131 11.4114 8.51705 11.4114 8.23011C11.4114 7.94034 11.3532 7.6875 11.2367 7.47159C11.123 7.25284 10.9498 7.08381 10.7168 6.96449C10.4838 6.84233 10.1884 6.78125 9.83043 6.78125H8.58612V14H6.74094ZM22.5304 9.63636C22.5304 10.5881 22.35 11.3977 21.9892 12.0653C21.6312 12.733 21.1426 13.2429 20.5233 13.5952C19.9068 13.9446 19.2136 14.1193 18.4437 14.1193C17.6681 14.1193 16.9721 13.9432 16.3556 13.5909C15.7392 13.2386 15.252 12.7287 14.894 12.0611C14.536 11.3935 14.3571 10.5852 14.3571 9.63636C14.3571 8.68466 14.536 7.875 14.894 7.20739C15.252 6.53977 15.7392 6.03125 16.3556 5.68182C16.9721 5.32955 17.6681 5.15341 18.4437 5.15341C19.2136 5.15341 19.9068 5.32955 20.5233 5.68182C21.1426 6.03125 21.6312 6.53977 21.9892 7.20739C22.35 7.875 22.5304 8.68466 22.5304 9.63636ZM20.6596 9.63636C20.6596 9.01989 20.5673 8.5 20.3826 8.0767C20.2008 7.65341 19.9437 7.33239 19.6113 7.11364C19.2789 6.89489 18.8897 6.78551 18.4437 6.78551C17.9977 6.78551 17.6085 6.89489 17.2761 7.11364C16.9437 7.33239 16.6852 7.65341 16.5005 8.0767C16.3187 8.5 16.2278 9.01989 16.2278 9.63636C16.2278 10.2528 16.3187 10.7727 16.5005 11.196C16.6852 11.6193 16.9437 11.9403 17.2761 12.1591C17.6085 12.3778 17.9977 12.4872 18.4437 12.4872C18.8897 12.4872 19.2789 12.3778 19.6113 12.1591C19.9437 11.9403 20.2008 11.6193 20.3826 11.196C20.5673 10.7727 20.6596 10.2528 20.6596 9.63636ZM28.6316 7.78267C28.5975 7.43892 28.4512 7.17187 28.1926 6.98153C27.9341 6.79119 27.5833 6.69602 27.1401 6.69602C26.839 6.69602 26.5847 6.73864 26.3773 6.82386C26.1699 6.90625 26.0108 7.02131 25.9 7.16903C25.7921 7.31676 25.7381 7.48438 25.7381 7.67188C25.7324 7.82812 25.7651 7.96449 25.8361 8.08097C25.91 8.19744 26.0108 8.2983 26.1387 8.38352C26.2665 8.46591 26.4142 8.53835 26.5819 8.60085C26.7495 8.66051 26.9284 8.71165 27.1188 8.75426L27.9029 8.94176C28.2836 9.02699 28.633 9.14062 28.9512 9.28267C29.2694 9.42472 29.5449 9.59943 29.7779 9.80682C30.0108 10.0142 30.1912 10.2585 30.3191 10.5398C30.4498 10.821 30.5165 11.1435 30.5194 11.5071C30.5165 12.0412 30.3801 12.5043 30.1103 12.8963C29.8432 13.2855 29.4569 13.5881 28.9512 13.804C28.4483 14.017 27.8418 14.1236 27.1316 14.1236C26.427 14.1236 25.8134 14.0156 25.2907 13.7997C24.7708 13.5838 24.3645 13.2642 24.0719 12.8409C23.7821 12.4148 23.6301 11.8878 23.6159 11.2599H25.4015C25.4213 11.5526 25.5051 11.7969 25.6529 11.9929C25.8034 12.1861 26.0037 12.3324 26.2537 12.4318C26.5066 12.5284 26.7921 12.5767 27.1103 12.5767C27.4228 12.5767 27.6941 12.5312 27.9242 12.4403C28.1571 12.3494 28.3375 12.223 28.4654 12.0611C28.5932 11.8991 28.6571 11.7131 28.6571 11.5028C28.6571 11.3068 28.5989 11.142 28.4824 11.0085C28.3688 10.875 28.2012 10.7614 27.9796 10.6676C27.7608 10.5739 27.4924 10.4886 27.1742 10.4119L26.2239 10.1733C25.4881 9.99432 24.9071 9.71449 24.481 9.33381C24.0549 8.95312 23.8432 8.44034 23.8461 7.79545C23.8432 7.26705 23.9838 6.8054 24.2679 6.41051C24.5549 6.01562 24.9483 5.70739 25.4483 5.4858C25.9483 5.2642 26.5165 5.15341 27.1529 5.15341C27.8006 5.15341 28.3659 5.2642 28.8489 5.4858C29.3347 5.70739 29.7125 6.01562 29.9824 6.41051C30.2523 6.8054 30.3915 7.26278 30.4 7.78267H28.6316ZM31.4281 6.79403V5.27273H38.5957V6.79403H35.9238V14H34.1V6.79403H31.4281Z" fill="white"/>
</svg>
