<svg width="45" height="20" viewBox="0 0 45 20" fill="none" xmlns="http://www.w3.org/2000/svg">
<rect width="45" height="20" rx="5" fill="#21DEB1"/>
<path d="M10.989 14V5.27273H14.4322C15.0941 5.27273 15.658 5.39915 16.1239 5.65199C16.5898 5.90199 16.945 6.25 17.1893 6.69602C17.4364 7.1392 17.56 7.65057 17.56 8.23011C17.56 8.80966 17.435 9.32102 17.185 9.7642C16.935 10.2074 16.5728 10.5526 16.0984 10.7997C15.6268 11.0469 15.0558 11.1705 14.3853 11.1705H12.1907V9.69176H14.087C14.4421 9.69176 14.7347 9.63068 14.9648 9.50852C15.1978 9.38352 15.3711 9.21165 15.4847 8.9929C15.6012 8.77131 15.6594 8.51705 15.6594 8.23011C15.6594 7.94034 15.6012 7.6875 15.4847 7.47159C15.3711 7.25284 15.1978 7.08381 14.9648 6.96449C14.7319 6.84233 14.4364 6.78125 14.0785 6.78125H12.8342V14H10.989ZM24.1491 5.27273H25.9943V10.9403C25.9943 11.5767 25.8423 12.1335 25.5384 12.6108C25.2372 13.0881 24.8153 13.4602 24.2727 13.7273C23.7301 13.9915 23.098 14.1236 22.3764 14.1236C21.652 14.1236 21.0185 13.9915 20.4759 13.7273C19.9332 13.4602 19.5114 13.0881 19.2102 12.6108C18.9091 12.1335 18.7585 11.5767 18.7585 10.9403V5.27273H20.6037V10.7827C20.6037 11.1151 20.6761 11.4105 20.821 11.669C20.9688 11.9276 21.1761 12.1307 21.4432 12.2784C21.7102 12.4261 22.0213 12.5 22.3764 12.5C22.7344 12.5 23.0455 12.4261 23.3097 12.2784C23.5767 12.1307 23.7827 11.9276 23.9276 11.669C24.0753 11.4105 24.1491 11.1151 24.1491 10.7827V5.27273ZM27.18 6.79403V5.27273H34.3477V6.79403H31.6758V14H29.8519V6.79403H27.18Z" fill="white"/>
</svg>
