<svg width="20" height="20" viewBox="0 0 20 20" fill="none" xmlns="http://www.w3.org/2000/svg">
<mask id="mask0_326_10446" style="mask-type:alpha" maskUnits="userSpaceOnUse" x="0" y="0" width="20" height="20">
<rect width="20" height="20" fill="#D9D9D9"/>
</mask>
<g mask="url(#mask0_326_10446)">
<path d="M3.33366 16.6673C2.87533 16.6673 2.48296 16.5041 2.15658 16.1777C1.83019 15.8513 1.66699 15.459 1.66699 15.0007V5.00065C1.66699 4.54232 1.83019 4.14996 2.15658 3.82357C2.48296 3.49718 2.87533 3.33398 3.33366 3.33398H8.33366L10.0003 5.00065H16.667C17.1253 5.00065 17.5177 5.16385 17.8441 5.49023C18.1705 5.81662 18.3337 6.20898 18.3337 6.66732V15.0007C18.3337 15.459 18.1705 15.8513 17.8441 16.1777C17.5177 16.5041 17.1253 16.6673 16.667 16.6673H3.33366ZM3.33366 15.0007H16.667V6.66732H9.31283L7.64616 5.00065H3.33366V15.0007Z" fill="#838383"/>
</g>
</svg>
